<svg xmlns="http://www.w3.org/2000/svg" width="60" height="60" viewBox="0 0 60 60"><g transform="translate(-1254 -159)"><g transform="translate(86 16)"><rect width="60" height="60" rx="12" transform="translate(1168 143)" fill="#fff"/><g transform="translate(1181.783 153.728)"><text transform="translate(0 37.257)" fill="#81bbff" font-size="9" font-family="SegoeUI, Segoe UI"><tspan x="0" y="0">Cam</tspan><tspan y="0" fill="#ffdd6a">br</tspan></text><g transform="translate(-1190.049 -157.745)"><g transform="translate(1187.266 158.016)"><path d="M29.917,16.816V31.191a3.352,3.352,0,0,1-3.351,3.351l-11.607.048-3.533-.048-3.266.048H3.351A3.352,3.352,0,0,1,0,31.239V16.865a3.352,3.352,0,0,1,3.351-3.351l23.214-.048A3.352,3.352,0,0,1,29.917,16.816Z" transform="translate(0 -5.986)" fill="#1dc6ac"/><path d="M40.566,2.513,17.352,2.465A3.352,3.352,0,0,0,14,5.816V9.979l17.047-.035A3.352,3.352,0,0,1,34.4,13.3V23.591h6.168a3.352,3.352,0,0,0,3.351-3.351V5.865A3.352,3.352,0,0,0,40.566,2.513Z" transform="translate(-4.481 -2.465)" fill="#ffd179"/><rect width="7" height="2" rx="1" transform="translate(5 18.999)" fill="#fff"/><rect width="19" height="2" rx="1" transform="translate(5 22.999)" fill="#fff"/></g></g></g></g></g></svg>